<?xml version="1.0" encoding="UTF-8"?>
<svg viewBox="-10.0 10.0 910.0 1210.0" width="100%" style="max-width:910px" xmlns="http://www.w3.org/2000/svg">
  <defs>
    <marker id="arrow-info" viewBox="0 0 10 10" refX="10" refY="5"
            markerWidth="8" markerHeight="8" orient="auto-start-reverse">
      <path d="M 0 0 L 10 5 L 0 10 z" fill="#333"/>
    </marker>
    <marker id="arrow-auth" viewBox="0 0 10 10" refX="10" refY="5"
            markerWidth="8" markerHeight="8" orient="auto-start-reverse">
      <path d="M 0 0 L 10 5 L 0 10" fill="none" stroke="#333" stroke-width="1.5"/>
    </marker>
  </defs>
  <polyline points="280.0,123.0 410.0,220.0 410.0,240.0" fill="none" stroke="#333" stroke-width="1.5" marker-end="url(#arrow-info)"/>
  <polyline points="455.0,123.0 455.0,220.0 455.0,240.0" fill="none" stroke="#333" stroke-width="1.5" marker-end="url(#arrow-info)"/>
  <polyline points="630.0,123.0 500.0,220.0 500.0,240.0" fill="none" stroke="#333" stroke-width="1.5" marker-end="url(#arrow-info)"/>
  <polyline points="670.0,281.0 545.0,282.0" fill="none" stroke="#888" stroke-width="1" stroke-dasharray="3,3"/>
  <polyline points="300.0,281.0 365.0,280.0" fill="none" stroke="#555" stroke-width="1.5" stroke-dasharray="8,4" marker-end="url(#arrow-auth)"/>
  <polyline points="182.0,637.0 395.0,560.0 395.0,540.0" fill="none" stroke="#333" stroke-width="1.5" marker-end="url(#arrow-info)"/>
  <polyline points="590.0,637.0 485.0,560.0 485.0,540.0" fill="none" stroke="#333" stroke-width="1.5" marker-end="url(#arrow-info)"/>
  <polyline points="455.0,320.0 455.0,440.0 455.0,460.0" fill="none" stroke="#333" stroke-width="1.5" marker-end="url(#arrow-info)"/>
  <polyline points="163.0,800.0 245.0,780.0" fill="none" stroke="#333" stroke-width="1.5" marker-end="url(#arrow-info)"/>
  <polyline points="630.0,100.0 630.0,50.0 30.0,50.0 30.0,740.0 200.0,740.0" fill="none" stroke="#333" stroke-width="1.5" marker-end="url(#arrow-info)"/>
  <polyline points="633.0,800.0 655.0,780.0" fill="none" stroke="#333" stroke-width="1.5" marker-end="url(#arrow-info)"/>
  <polyline points="783.0,800.0 735.0,780.0" fill="none" stroke="#333" stroke-width="1.5" marker-end="url(#arrow-info)"/>
  <polyline points="290.0,780.0 410.0,900.0" fill="none" stroke="#333" stroke-width="1.5" marker-end="url(#arrow-info)"/>
  <polyline points="780.0,740.0 860.0,740.0 860.0,860.0 545.0,940.0" fill="none" stroke="#333" stroke-width="1.5" marker-end="url(#arrow-info)"/>
  <polyline points="455.0,980.0 455.0,1100.0" fill="none" stroke="#333" stroke-width="1.5" marker-end="url(#arrow-info)"/>
  <polyline points="633.0,1095.0 545.0,1130.0" fill="none" stroke="#333" stroke-width="1.5" marker-end="url(#arrow-info)"/>
  <rect x="365.0" y="240.0" width="180.0" height="80.0" rx="2" fill="white" stroke="#2c5aa0" stroke-width="2"/>
  <rect x="365.0" y="240.0" width="180.0" height="4" fill="#2c5aa0" rx="2"/>
  <text x="455.0" y="280.0" font-family="Inter, system-ui, sans-serif" font-size="12" fill="#333" text-anchor="middle" dominant-baseline="middle">Eligible For Screening</text>
  <rect x="217.0" y="78.0" width="125.0" height="45.0" rx="22.5" fill="white" stroke="#333" stroke-width="1.5"/>
  <text x="279.5" y="100.5" font-family="Inter, system-ui, sans-serif" font-size="12" fill="#333" text-anchor="middle" dominant-baseline="middle">Client Is Woman</text>
  <rect x="392.0" y="78.0" width="125.0" height="45.0" rx="22.5" fill="white" stroke="#333" stroke-width="1.5"/>
  <text x="454.5" y="100.5" font-family="Inter, system-ui, sans-serif" font-size="12" fill="#333" text-anchor="middle" dominant-baseline="middle">Age In Years</text>
  <rect x="567.0" y="78.0" width="125.0" height="45.0" rx="22.5" fill="white" stroke="#333" stroke-width="1.5"/>
  <text x="629.5" y="100.5" font-family="Inter, system-ui, sans-serif" font-size="12" fill="#333" text-anchor="middle" dominant-baseline="middle">Living With HIV</text>
  <line x1="670.0" y1="260.0" x2="670.0" y2="340.0" stroke="#888" stroke-width="1.5"/>
  <line x1="670.0" y1="260.0" x2="678.0" y2="260.0" stroke="#888" stroke-width="1.5"/>
  <line x1="670.0" y1="340.0" x2="678.0" y2="340.0" stroke="#888" stroke-width="1.5"/>
  <text x="682.0" y="268.0" font-family="Inter, system-ui, sans-serif" font-size="10" fill="#666" text-anchor="start" dominant-baseline="hanging">L2 textualist representation.</text>
  <text x="682.0" y="281.0" font-family="Inter, system-ui, sans-serif" font-size="10" fill="#666" text-anchor="start" dominant-baseline="hanging">Interpretive decisions documented</text>
  <text x="682.0" y="294.0" font-family="Inter, system-ui, sans-serif" font-size="10" fill="#666" text-anchor="start" dominant-baseline="hanging">in Interpretation Register and</text>
  <text x="682.0" y="307.0" font-family="Inter, system-ui, sans-serif" font-size="10" fill="#666" text-anchor="start" dominant-baseline="hanging">resolved at L3.</text>
  <path d="M140.0,249.0 L300.0,249.0 L300.0,321.0 Q260.0,333.0 220.0,321.0 Q180.0,309.0 140.0,321.0 Z" fill="white" stroke="#333" stroke-width="1.5"/>
  <text x="220.0" y="268.0" font-family="Inter, system-ui, sans-serif" font-size="12" fill="#333" text-anchor="middle" dominant-baseline="middle">WHO Cervical Cancer</text>
  <text x="220.0" y="283.0" font-family="Inter, system-ui, sans-serif" font-size="12" fill="#333" text-anchor="middle" dominant-baseline="middle">Screening</text>
  <text x="220.0" y="298.0" font-family="Inter, system-ui, sans-serif" font-size="12" fill="#333" text-anchor="middle" dominant-baseline="middle">Guidelines, July</text>
  <text x="220.0" y="313.0" font-family="Inter, system-ui, sans-serif" font-size="12" fill="#333" text-anchor="middle" dominant-baseline="middle">2021</text>
  <rect x="120.0" y="637.0" width="125.0" height="45.0" rx="22.5" fill="white" stroke="#333" stroke-width="1.5"/>
  <text x="182.5" y="652.5" font-family="Inter, system-ui, sans-serif" font-size="12" fill="#333" text-anchor="middle" dominant-baseline="middle">Years Since</text>
  <text x="182.5" y="667.5" font-family="Inter, system-ui, sans-serif" font-size="12" fill="#333" text-anchor="middle" dominant-baseline="middle">Last Screen</text>
  <rect x="527.0" y="637.0" width="125.0" height="45.0" rx="22.5" fill="white" stroke="#333" stroke-width="1.5"/>
  <text x="589.5" y="652.5" font-family="Inter, system-ui, sans-serif" font-size="12" fill="#333" text-anchor="middle" dominant-baseline="middle">Prior Screen</text>
  <text x="589.5" y="667.5" font-family="Inter, system-ui, sans-serif" font-size="12" fill="#333" text-anchor="middle" dominant-baseline="middle">Result</text>
  <rect x="365.0" y="460.0" width="180.0" height="80.0" rx="2" fill="white" stroke="#2c5aa0" stroke-width="2"/>
  <rect x="365.0" y="460.0" width="180.0" height="4" fill="#2c5aa0" rx="2"/>
  <text x="455.0" y="500.0" font-family="Inter, system-ui, sans-serif" font-size="12" fill="#333" text-anchor="middle" dominant-baseline="middle">Due for Screening</text>
  <rect x="100.0" y="800.0" width="125.0" height="45.0" rx="22.5" fill="white" stroke="#333" stroke-width="1.5"/>
  <text x="162.5" y="822.5" font-family="Inter, system-ui, sans-serif" font-size="12" fill="#333" text-anchor="middle" dominant-baseline="middle">VIA Result</text>
  <rect x="200.0" y="700.0" width="180.0" height="80.0" rx="2" fill="white" stroke="#2c5aa0" stroke-width="2"/>
  <rect x="200.0" y="700.0" width="180.0" height="4" fill="#2c5aa0" rx="2"/>
  <text x="290.0" y="740.0" font-family="Inter, system-ui, sans-serif" font-size="12" fill="#333" text-anchor="middle" dominant-baseline="middle">Triage Decision</text>
  <rect x="570.0" y="800.0" width="125.0" height="45.0" rx="22.5" fill="white" stroke="#333" stroke-width="1.5"/>
  <text x="632.5" y="815.5" font-family="Inter, system-ui, sans-serif" font-size="12" fill="#333" text-anchor="middle" dominant-baseline="middle">Suspicion of</text>
  <text x="632.5" y="830.5" font-family="Inter, system-ui, sans-serif" font-size="12" fill="#333" text-anchor="middle" dominant-baseline="middle">Cancer</text>
  <rect x="720.0" y="800.0" width="125.0" height="45.0" rx="22.5" fill="white" stroke="#333" stroke-width="1.5"/>
  <text x="782.5" y="822.5" font-family="Inter, system-ui, sans-serif" font-size="12" fill="#333" text-anchor="middle" dominant-baseline="middle">TZ Type</text>
  <rect x="600.0" y="700.0" width="180.0" height="80.0" rx="2" fill="white" stroke="#2c5aa0" stroke-width="2"/>
  <rect x="600.0" y="700.0" width="180.0" height="4" fill="#2c5aa0" rx="2"/>
  <text x="690.0" y="740.0" font-family="Inter, system-ui, sans-serif" font-size="12" fill="#333" text-anchor="middle" dominant-baseline="middle">Ablation Eligibility</text>
  <rect x="365.0" y="900.0" width="180.0" height="80.0" rx="2" fill="white" stroke="#2c5aa0" stroke-width="2"/>
  <rect x="365.0" y="900.0" width="180.0" height="4" fill="#2c5aa0" rx="2"/>
  <text x="455.0" y="940.0" font-family="Inter, system-ui, sans-serif" font-size="12" fill="#333" text-anchor="middle" dominant-baseline="middle">Treatment Decision</text>
  <rect x="570.0" y="1050.0" width="125.0" height="45.0" rx="22.5" fill="white" stroke="#333" stroke-width="1.5"/>
  <text x="632.5" y="1065.5" font-family="Inter, system-ui, sans-serif" font-size="12" fill="#333" text-anchor="middle" dominant-baseline="middle">Histology</text>
  <text x="632.5" y="1080.5" font-family="Inter, system-ui, sans-serif" font-size="12" fill="#333" text-anchor="middle" dominant-baseline="middle">Result</text>
  <rect x="365.0" y="1100.0" width="180.0" height="80.0" rx="2" fill="white" stroke="#2c5aa0" stroke-width="2"/>
  <rect x="365.0" y="1100.0" width="180.0" height="4" fill="#2c5aa0" rx="2"/>
  <text x="455.0" y="1140.0" font-family="Inter, system-ui, sans-serif" font-size="12" fill="#333" text-anchor="middle" dominant-baseline="middle">Follow-up Decision</text>
</svg>